HIERARCHY
ROOT joint_Root
{
	OFFSET 0.0 0.0 0.0
	CHANNELS 6 Xposition Yposition Zposition Zrotation Xrotation Yrotation 
	JOINT Hips
	{
		OFFSET -17.1583 93.1646 452.98
		CHANNELS 6 Xposition Yposition Zposition Zrotation Xrotation Yrotation 
		JOINT Spine
		{
			OFFSET 15.7357 0.0 0.0
			CHANNELS 6 Xposition Yposition Zposition Zrotation Xrotation Yrotation 
			JOINT Chest
			{
				OFFSET 8.98455 -0.406207 0.0
				CHANNELS 6 Xposition Yposition Zposition Zrotation Xrotation Yrotation 
				JOINT Neck
				{
					OFFSET 16.3773 0.0 0.0
					CHANNELS 6 Xposition Yposition Zposition Zrotation Xrotation Yrotation 
					JOINT Head
					{
						OFFSET 6.45672 0.0 0.0
						CHANNELS 6 Xposition Yposition Zposition Zrotation Xrotation Yrotation 
						End Site
						{
							OFFSET 0.0 0.0 0.0
						}
					}
				}
				JOINT Shoulder_L
				{
					OFFSET 12.9942 -0.242716 4.98039
					CHANNELS 6 Xposition Yposition Zposition Zrotation Xrotation Yrotation 
					JOINT UpperArm_L
					{
						OFFSET 5.34809 0.0 0.0
						CHANNELS 6 Xposition Yposition Zposition Zrotation Xrotation Yrotation 
						JOINT LowerArm_L
						{
							OFFSET 24.3286 1.87007e-05 0.0
							CHANNELS 6 Xposition Yposition Zposition Zrotation Xrotation Yrotation 
							JOINT Hand_L
							{
								OFFSET 22.2916 0.0 0.0
								CHANNELS 6 Xposition Yposition Zposition Zrotation Xrotation Yrotation 
								End Site
								{
									OFFSET 0.0 0.0 0.0
								}
							}
						}
					}
				}
				JOINT Shoulder_R
				{
					OFFSET 12.9945 -0.242716 -4.98039
					CHANNELS 6 Xposition Yposition Zposition Zrotation Xrotation Yrotation 
					JOINT UpperArm_R
					{
						OFFSET -5.34813 0.0 0.0
						CHANNELS 6 Xposition Yposition Zposition Zrotation Xrotation Yrotation 
						JOINT LowerArm_R
						{
							OFFSET -24.3289 0.000322201 0.0
							CHANNELS 6 Xposition Yposition Zposition Zrotation Xrotation Yrotation 
							JOINT Hand_R
							{
								OFFSET -22.2915 -0.000108084 0.0
								CHANNELS 6 Xposition Yposition Zposition Zrotation Xrotation Yrotation 
								End Site
								{
									OFFSET 0.0 0.0 0.0
								}
							}
						}
					}
				}
			}
		}
		JOINT UpperLeg_L
		{
			OFFSET -2.19248 -6.46944 0.0
			CHANNELS 6 Xposition Yposition Zposition Zrotation Xrotation Yrotation 
			JOINT LowerLeg_L
			{
				OFFSET 39.0811 0.0 -1.23785e-05
				CHANNELS 6 Xposition Yposition Zposition Zrotation Xrotation Yrotation 
				JOINT Foot_L
				{
					OFFSET 40.9854 0.0 -1.26872e-05
					CHANNELS 6 Xposition Yposition Zposition Zrotation Xrotation Yrotation 
					JOINT Toes_L
					{
						OFFSET 11.7543 0.0 0.0
						CHANNELS 6 Xposition Yposition Zposition Zrotation Xrotation Yrotation 
						End Site
						{
							OFFSET 0.0 0.0 0.0
						}
					}
				}
			}
		}
		JOINT UpperLeg_R
		{
			OFFSET -2.19251 6.46944 0.0
			CHANNELS 6 Xposition Yposition Zposition Zrotation Xrotation Yrotation 
			JOINT LowerLeg_R
			{
				OFFSET -39.0811 -0.00228153 -0.0401928
				CHANNELS 6 Xposition Yposition Zposition Zrotation Xrotation Yrotation 
				JOINT Foot_R
				{
					OFFSET -40.9854 0.0 0.0
					CHANNELS 6 Xposition Yposition Zposition Zrotation Xrotation Yrotation 
					JOINT Toes_R
					{
						OFFSET -11.7543 0.0 0.0
						CHANNELS 6 Xposition Yposition Zposition Zrotation Xrotation Yrotation 
						End Site
						{
							OFFSET 0.0 0.0 0.0
						}
					}
				}
			}
		}
	}
}
MOTION
Frames:	9
Frame Time:	0.0333333
0.000000 0.000000 0.000000 0.000000 0.000000 -0.000000 -1.950340 91.666600 -0.203957 83.560200 1.770370 5.730870 15.735700 0.000005 -0.000001 70.518900 87.224300 -67.237200 8.984550 -0.406207 -0.000000 -2.463230 -2.143480 6.517920 16.377300 -0.000001 -0.000001 11.917400 4.318270 3.361160 6.456720 -0.000001 -0.000000 5.896910 7.365850 4.817520 12.994200 -0.242716 4.980390 -92.683900 7.614990 -70.519300 5.348090 -0.000007 -0.000001 -68.833400 -4.030290 1.248600 24.328600 0.000019 0.000005 59.035200 -45.461400 -113.155000 22.291600 -0.000001 0.000005 63.709300 4.914200 9.098150 12.994500 -0.242716 -4.980390 87.774800 6.469090 -70.971800 -5.348130 -0.000001 -0.000004 -65.027600 5.208720 -2.187430 -24.328900 0.000322 -0.000009 16.455800 -14.626300 -130.525000 -22.291500 -0.000108 -0.000004 60.031400 5.612860 -12.137600 -2.192480 -6.469440 -0.000000 -172.085000 -0.026706 -3.434030 39.081100 -0.000007 -0.000012 0.446514 -0.765354 30.260800 40.985400 -0.000006 -0.000013 2.327300 8.834150 -77.216500 11.754300 -0.000000 0.000003 0.000519 0.158371 -10.153800 -2.192510 6.469440 -0.000001 -170.705000 6.805100 -175.565000 -39.081100 -0.002282 -0.040193 0.150569 -0.471908 17.329000 -40.985400 0.000008 0.000006 4.049080 -0.370751 -72.299600 -11.754300 -0.000006 -0.000006 -0.011244 0.280379 -5.179710
0.000000 0.000000 0.000000 0.000000 0.000000 -0.000000 -1.989540 91.665800 -0.217804 83.558800 1.719500 5.698040 15.735700 0.000005 -0.000001 70.349900 87.235300 -67.043600 8.984550 -0.406207 -0.000000 -2.488660 -2.154390 6.566490 16.377300 -0.000001 -0.000001 12.036800 4.388590 3.221680 6.456720 -0.000001 -0.000000 6.037270 7.446360 4.671180 12.994200 -0.242716 4.980390 -92.674500 7.599620 -70.546200 5.348090 -0.000007 -0.000001 -69.372000 -5.477260 1.173520 24.328600 0.000019 0.000005 51.723600 -41.389400 -117.551000 22.291600 -0.000001 0.000005 60.139000 4.774050 11.815900 12.994500 -0.242716 -4.980390 87.771500 6.479410 -70.973700 -5.348130 -0.000001 -0.000004 -65.590000 3.982100 -2.637320 -24.328900 0.000322 -0.000009 11.762800 -10.442700 -131.036000 -22.291500 -0.000108 -0.000004 59.477100 5.480430 -5.763560 -2.192480 -6.469440 -0.000000 -172.050000 -0.093547 -3.480510 39.081100 -0.000007 -0.000012 0.452679 -0.775165 30.285200 40.985400 -0.000006 -0.000013 2.312010 8.888330 -77.288700 11.754300 -0.000000 0.000003 0.000270 0.162950 -9.967870 -2.192510 6.469440 -0.000001 -170.678000 6.796420 -175.616000 -39.081100 -0.002282 -0.040193 0.150037 -0.469853 17.341100 -40.985400 0.000008 0.000006 4.071680 -0.374223 -72.272600 -11.754300 -0.000006 -0.000006 -0.011045 0.278953 -5.238070
0.000000 0.000000 0.000000 0.000000 0.000000 -0.000000 -2.016490 91.662900 -0.209670 83.572400 1.713710 5.730900 15.735700 0.000005 -0.000001 70.313700 87.218200 -66.982700 8.984550 -0.406207 -0.000000 -2.456560 -2.170490 6.616110 16.377300 -0.000001 -0.000001 12.111700 4.440160 3.138500 6.456720 -0.000001 -0.000000 6.089260 7.526840 4.419650 12.994200 -0.242716 4.980390 -92.675200 7.641810 -70.640100 5.348090 -0.000007 -0.000001 -69.966300 -7.378630 1.100390 24.328600 0.000019 0.000005 43.281200 -36.443800 -122.243000 22.291600 -0.000001 0.000005 54.911500 4.538980 15.976400 12.994500 -0.242716 -4.980390 87.787200 6.440000 -70.991000 -5.348130 -0.000001 -0.000004 -65.903900 3.366600 -2.793680 -24.328900 0.000322 -0.000009 8.976970 -7.920660 -131.097000 -22.291500 -0.000108 -0.000004 59.874300 5.377680 -2.228080 -2.192480 -6.469440 -0.000000 -172.040000 -0.121904 -3.432500 39.081100 -0.000007 -0.000012 0.450318 -0.771451 30.274600 40.985400 -0.000006 -0.000013 2.296180 8.892140 -77.260200 11.754300 -0.000000 0.000003 0.000347 0.161569 -10.024000 -2.192510 6.469440 -0.000001 -170.676000 6.793230 -175.576000 -39.081100 -0.002282 -0.040193 0.149546 -0.468214 17.343400 -40.985400 0.000008 0.000006 4.094490 -0.370242 -72.262500 -11.754300 -0.000006 -0.000006 -0.011309 0.280840 -5.160800
0.000000 0.000000 0.000000 0.000000 0.000000 -0.000000 -2.046600 91.667400 -0.220512 83.609400 1.704830 5.604300 15.735700 0.000005 -0.000001 70.430000 87.225000 -67.111400 8.984550 -0.406207 -0.000000 -2.466290 -2.154470 6.591210 16.377300 -0.000001 -0.000001 11.923800 4.419640 3.109600 6.456720 -0.000001 -0.000000 6.097680 7.568580 4.351540 12.994200 -0.242716 4.980390 -92.659400 7.607120 -70.665600 5.348090 -0.000007 -0.000001 -70.253300 -8.156190 0.965353 24.328600 0.000019 0.000005 35.615300 -31.747300 -126.299000 22.291600 -0.000001 0.000005 53.124400 4.332590 19.282700 12.994500 -0.242716 -4.980390 87.805600 6.412890 -71.064800 -5.348130 -0.000001 -0.000004 -65.961200 3.549320 -2.320440 -24.328900 0.000322 -0.000009 10.983000 -9.463480 -130.271000 -22.291500 -0.000108 -0.000004 60.372500 5.424570 -3.753170 -2.192480 -6.469440 -0.000000 -172.059000 -0.144733 -3.546910 39.081100 -0.000007 -0.000012 0.448114 -0.768946 30.233300 40.985400 -0.000006 -0.000013 2.275260 8.896140 -77.209800 11.754300 -0.000000 0.000003 0.000293 0.162540 -9.984520 -2.192510 6.469440 -0.000001 -170.661000 6.700730 -175.727000 -39.081100 -0.002282 -0.040193 0.150991 -0.472408 17.358400 -40.985400 0.000008 0.000006 4.107130 -0.428955 -72.248300 -11.754300 -0.000006 -0.000006 -0.011036 0.278887 -5.240760
0.000000 0.000000 0.000000 0.000000 0.000000 -0.000000 -2.081730 91.680200 -0.208411 83.640300 1.718130 5.504090 15.735700 0.000005 -0.000001 71.014300 87.201400 -67.704600 8.984550 -0.406207 -0.000000 -2.404390 -2.113830 6.575420 16.377300 -0.000001 -0.000001 11.598500 4.384180 3.143960 6.456720 -0.000001 -0.000000 5.954530 7.485740 4.308960 12.994200 -0.242716 4.980390 -92.690100 7.683840 -70.638000 5.348090 -0.000007 -0.000001 -69.916000 -7.009960 1.146880 24.328600 0.000019 0.000005 34.701200 -31.466200 -127.010000 22.291600 -0.000001 0.000005 56.532800 4.354590 18.948200 12.994500 -0.242716 -4.980390 87.754700 6.563060 -71.066600 -5.348130 -0.000001 -0.000004 -65.277200 4.704620 -1.525460 -24.328900 0.000322 -0.000009 16.211200 -13.848600 -129.462000 -22.291500 -0.000108 -0.000004 60.949500 5.558760 -9.125380 -2.192480 -6.469440 -0.000000 -172.062000 -0.146314 -3.593820 39.081100 -0.000007 -0.000012 0.445552 -0.767399 30.140600 40.985400 -0.000006 -0.000013 2.245510 8.915800 -77.190000 11.754300 -0.000000 0.000003 0.000365 0.161239 -10.037300 -2.192510 6.469440 -0.000001 -170.653000 6.687460 -175.751000 -39.081100 -0.002282 -0.040193 0.149378 -0.470848 17.233500 -40.985400 0.000008 0.000006 4.131170 -0.444501 -72.226100 -11.754300 -0.000006 -0.000006 -0.010978 0.278472 -5.257750
0.000000 0.000000 0.000000 0.000000 0.000000 -0.000000 -2.117070 91.692600 -0.189891 83.649500 1.767200 5.344490 15.735700 0.000005 -0.000001 70.689900 87.180400 -67.386200 8.984550 -0.406207 -0.000000 -2.374020 -2.156270 6.563040 16.377300 -0.000001 -0.000001 11.366600 4.378390 3.188880 6.456720 -0.000001 -0.000000 5.648050 7.452120 4.324240 12.994200 -0.242716 4.980390 -92.730200 7.753620 -70.533200 5.348090 -0.000007 -0.000001 -69.377400 -5.058430 1.690800 24.328600 0.000019 0.000005 41.577600 -36.437900 -123.802000 22.291600 -0.000001 0.000005 59.403700 4.574340 15.365600 12.994500 -0.242716 -4.980390 87.729500 6.609570 -70.992900 -5.348130 -0.000001 -0.000004 -64.330100 6.493960 -0.910461 -24.328900 0.000322 -0.000009 20.297700 -17.586100 -129.244000 -22.291500 -0.000108 -0.000004 60.912400 5.663500 -16.539900 -2.192480 -6.469440 -0.000000 -172.048000 -0.119927 -3.717820 39.081100 -0.000007 -0.000012 0.442816 -0.765074 30.063000 40.985400 -0.000006 -0.000013 2.215430 8.925170 -77.151900 11.754300 -0.000000 0.000003 0.000419 0.160247 -10.077600 -2.192510 6.469440 -0.000001 -170.637000 6.779770 -175.834000 -39.081100 -0.002282 -0.040193 0.148237 -0.471185 17.095200 -40.985400 0.000008 0.000006 4.167210 -0.374854 -72.209100 -11.754300 -0.000006 -0.000006 -0.011230 0.280281 -5.183710
0.000000 0.000000 0.000000 0.000000 0.000000 -0.000000 -2.140860 91.701000 -0.167878 83.666200 1.752990 5.249070 15.735700 0.000005 -0.000001 70.883300 87.159200 -67.595700 8.984550 -0.406207 -0.000000 -2.328290 -2.149440 6.531870 16.377300 -0.000001 -0.000001 11.241000 4.381440 3.247000 6.456720 -0.000001 -0.000000 5.409660 7.418590 4.407920 12.994200 -0.242716 4.980390 -92.738400 7.753640 -70.479100 5.348090 -0.000007 -0.000001 -68.877100 -3.435210 2.089060 24.328600 0.000019 0.000005 49.428900 -41.261700 -119.452000 22.291600 -0.000001 0.000005 61.495300 4.882920 9.728090 12.994500 -0.242716 -4.980390 87.724600 6.605880 -70.945000 -5.348130 -0.000001 -0.000004 -63.520800 7.979900 -0.601382 -24.328900 0.000322 -0.000009 24.119900 -21.322000 -129.079000 -22.291500 -0.000108 -0.000004 60.190200 5.680470 -22.361700 -2.192480 -6.469440 -0.000000 -172.046000 -0.127929 -3.760160 39.081100 -0.000007 -0.000012 0.441030 -0.763799 30.004000 40.985400 -0.000006 -0.000013 2.191360 8.925660 -77.212000 11.754300 -0.000000 0.000003 0.000048 0.166810 -9.811120 -2.192510 6.469440 -0.000001 -170.634000 6.776870 -175.855000 -39.081100 -0.002282 -0.040193 0.146751 -0.469415 16.990100 -40.985400 0.000008 0.000006 4.184450 -0.353980 -72.182500 -11.754300 -0.000006 -0.000006 -0.011089 0.279273 -5.224970
0.000000 0.000000 0.000000 0.000000 0.000000 -0.000000 -2.164260 91.698700 -0.148896 83.687800 1.734340 5.158860 15.735700 0.000005 -0.000001 71.213300 87.150800 -67.940100 8.984550 -0.406207 -0.000000 -2.302730 -2.121970 6.503940 16.377300 -0.000001 -0.000001 11.215000 4.387960 3.267460 6.456720 -0.000001 -0.000000 5.328670 7.406860 4.465230 12.994200 -0.242716 4.980390 -92.727200 7.712710 -70.458400 5.348090 -0.000007 -0.000001 -68.639900 -2.582360 2.054570 24.328600 0.000019 0.000005 57.681200 -44.740200 -114.004000 22.291600 -0.000001 0.000005 64.116400 5.029580 6.688280 12.994500 -0.242716 -4.980390 87.729800 6.599570 -70.968900 -5.348130 -0.000001 -0.000004 -63.155600 8.565180 -0.612832 -24.328900 0.000322 -0.000009 27.447500 -24.336800 -128.428000 -22.291500 -0.000108 -0.000004 60.577900 5.672400 -24.466000 -2.192480 -6.469440 -0.000000 -172.068000 -0.080375 -3.836140 39.081100 -0.000007 -0.000012 0.442075 -0.766090 29.988400 40.985400 -0.000006 -0.000013 2.152680 8.838880 -77.150700 11.754300 -0.000000 0.000003 0.000266 0.163026 -9.964790 -2.192510 6.469440 -0.000001 -170.617000 6.717000 -175.951000 -39.081100 -0.002282 -0.040193 0.147296 -0.470559 17.011900 -40.985400 0.000008 0.000006 4.194660 -0.403974 -72.184000 -11.754300 -0.000006 -0.000006 -0.011134 0.279595 -5.211780
0.000000 0.000000 0.000000 0.000000 0.000000 -0.000000 -2.187060 91.702300 -0.125413 83.684900 1.733410 5.228030 15.735700 0.000005 -0.000001 71.521700 87.112800 -68.250800 8.984550 -0.406207 -0.000000 -2.221230 -2.114440 6.500880 16.377300 -0.000001 -0.000001 11.314300 4.393880 3.256710 6.456720 -0.000001 -0.000000 5.348290 7.439760 4.450620 12.994200 -0.242716 4.980390 -92.713400 7.694680 -70.508000 5.348090 -0.000007 -0.000001 -68.716900 -2.621220 1.861610 24.328600 0.000019 0.000005 61.344000 -45.220400 -111.202000 22.291600 -0.000001 0.000005 65.868500 5.043330 6.381620 12.994500 -0.242716 -4.980390 87.711000 6.631120 -70.906900 -5.348130 -0.000001 -0.000004 -63.224700 8.285760 -0.923482 -24.328900 0.000322 -0.000009 26.178700 -23.172100 -128.674000 -22.291500 -0.000108 -0.000004 60.924800 5.674020 -24.165200 -2.192480 -6.469440 -0.000000 -172.059000 -0.028440 -3.715840 39.081100 -0.000007 -0.000012 0.439719 -0.763192 29.949900 40.985400 -0.000006 -0.000013 2.124000 8.789570 -77.211800 11.754300 -0.000000 0.000003 0.000284 0.162701 -9.977990 -2.192510 6.469440 -0.000001 -170.600000 6.707020 -175.806000 -39.081100 -0.002282 -0.040193 0.146178 -0.469678 16.917200 -40.985400 0.000008 0.000006 4.207680 -0.429239 -72.210100 -11.754300 -0.000006 -0.000006 -0.010989 0.278555 -5.254370
